<mxfile host="app.diagrams.net" agent="Mozilla/5.0 (Windows NT 10.0; Win64; x64) AppleWebKit/537.36 (KHTML, like Gecko) Chrome/135.0.0.0 Safari/537.36" version="26.2.14">
  <diagram name="ページ1" id="-qjPrjzpojKqYAEf947l">
    <mxGraphModel dx="1048" dy="914" grid="1" gridSize="10" guides="1" tooltips="1" connect="1" arrows="1" fold="1" page="1" pageScale="1" pageWidth="827" pageHeight="1169" math="0" shadow="0">
      <root>
        <mxCell id="0" />
        <mxCell id="1" parent="0" />
        <mxCell id="V2kAgaP6eBAVZdixP9m5-1" value="開始" style="ellipse;whiteSpace=wrap;html=1;" vertex="1" parent="1">
          <mxGeometry x="260" y="20" width="120" height="60" as="geometry" />
        </mxCell>
        <mxCell id="V2kAgaP6eBAVZdixP9m5-2" value="a と b を入力" style="parallelogram;whiteSpace=wrap;html=1;" vertex="1" parent="1">
          <mxGeometry x="240" y="120" width="160" height="60" as="geometry" />
        </mxCell>
        <mxCell id="V2kAgaP6eBAVZdixP9m5-3" value="a &gt; b ?" style="rhombus;whiteSpace=wrap;html=1;" vertex="1" parent="1">
          <mxGeometry x="260" y="240" width="120" height="80" as="geometry" />
        </mxCell>
        <mxCell id="V2kAgaP6eBAVZdixP9m5-4" value="max = a" style="rectangle;whiteSpace=wrap;html=1;" vertex="1" parent="1">
          <mxGeometry x="160" y="360" width="120" height="60" as="geometry" />
        </mxCell>
        <mxCell id="V2kAgaP6eBAVZdixP9m5-5" value="max = b" style="rectangle;whiteSpace=wrap;html=1;" vertex="1" parent="1">
          <mxGeometry x="360" y="360" width="120" height="60" as="geometry" />
        </mxCell>
        <mxCell id="V2kAgaP6eBAVZdixP9m5-6" value="max を表示" style="parallelogram;whiteSpace=wrap;html=1;" vertex="1" parent="1">
          <mxGeometry x="240" y="500" width="160" height="60" as="geometry" />
        </mxCell>
        <mxCell id="V2kAgaP6eBAVZdixP9m5-7" value="終了" style="ellipse;whiteSpace=wrap;html=1;" vertex="1" parent="1">
          <mxGeometry x="260" y="620" width="120" height="60" as="geometry" />
        </mxCell>
        <mxCell id="V2kAgaP6eBAVZdixP9m5-8" style="edgeStyle=orthogonalEdgeStyle;rounded=0;html=1;" edge="1" source="V2kAgaP6eBAVZdixP9m5-1" target="V2kAgaP6eBAVZdixP9m5-2" parent="1">
          <mxGeometry relative="1" as="geometry" />
        </mxCell>
        <mxCell id="V2kAgaP6eBAVZdixP9m5-9" style="edgeStyle=orthogonalEdgeStyle;rounded=0;html=1;" edge="1" source="V2kAgaP6eBAVZdixP9m5-2" target="V2kAgaP6eBAVZdixP9m5-3" parent="1">
          <mxGeometry relative="1" as="geometry" />
        </mxCell>
        <mxCell id="V2kAgaP6eBAVZdixP9m5-10" style="edgeStyle=orthogonalEdgeStyle;rounded=0;html=1;exitX=0.25;exitY=1;entryX=0.5;entryY=0;jettySize=auto;orthogonalLoop=1;" edge="1" source="V2kAgaP6eBAVZdixP9m5-3" target="V2kAgaP6eBAVZdixP9m5-4" parent="1">
          <mxGeometry relative="1" as="geometry" />
        </mxCell>
        <mxCell id="V2kAgaP6eBAVZdixP9m5-11" style="edgeStyle=orthogonalEdgeStyle;rounded=0;html=1;exitX=0.75;exitY=1;entryX=0.5;entryY=0;jettySize=auto;orthogonalLoop=1;" edge="1" source="V2kAgaP6eBAVZdixP9m5-3" target="V2kAgaP6eBAVZdixP9m5-5" parent="1">
          <mxGeometry relative="1" as="geometry" />
        </mxCell>
        <mxCell id="V2kAgaP6eBAVZdixP9m5-12" style="edgeStyle=orthogonalEdgeStyle;rounded=0;html=1;" edge="1" source="V2kAgaP6eBAVZdixP9m5-4" target="V2kAgaP6eBAVZdixP9m5-6" parent="1">
          <mxGeometry relative="1" as="geometry" />
        </mxCell>
        <mxCell id="V2kAgaP6eBAVZdixP9m5-13" style="edgeStyle=orthogonalEdgeStyle;rounded=0;html=1;" edge="1" source="V2kAgaP6eBAVZdixP9m5-5" target="V2kAgaP6eBAVZdixP9m5-6" parent="1">
          <mxGeometry relative="1" as="geometry" />
        </mxCell>
        <mxCell id="V2kAgaP6eBAVZdixP9m5-14" style="edgeStyle=orthogonalEdgeStyle;rounded=0;html=1;" edge="1" source="V2kAgaP6eBAVZdixP9m5-6" target="V2kAgaP6eBAVZdixP9m5-7" parent="1">
          <mxGeometry relative="1" as="geometry" />
        </mxCell>
      </root>
    </mxGraphModel>
  </diagram>
</mxfile>
